<svg width="26" height="27" viewBox="0 0 26 27" fill="none" xmlns="http://www.w3.org/2000/svg">
<path d="M15.6733 13H7.67326V15.4C7.67326 16.8935 7.67326 17.6403 7.96391 18.2107C8.21957 18.7124 8.62751 19.1204 9.12929 19.376C9.69971 19.6667 10.4465 19.6667 11.9399 19.6667H14.3399C15.5825 19.6667 16.2037 19.6667 16.6938 19.4637C17.3471 19.1931 17.8663 18.6739 18.137 18.0205C18.3399 17.5304 18.3399 16.9092 18.3399 15.6667V13H15.6733ZM15.6733 13V9M10.3399 9V13M13.0066 25V19.6667M13.0066 25C6.37918 25 1.00659 19.6275 1.00659 13C1.00659 6.37259 6.37918 1 13.0066 1C13.2303 1 13.4526 1.00612 13.6733 1.0182M13.0066 25C19.1834 25 24.2701 20.3333 24.9334 14.3333" stroke="#D0D5DD" stroke-width="2" stroke-linecap="round" stroke-linejoin="round"/>
<path fill-rule="evenodd" clip-rule="evenodd" d="M10.3712 0.281469C12.757 -0.214224 15.3092 -0.0459884 17.7472 0.909399C17.9725 0.99768 18.1946 1.09133 18.4122 1.19065C18.9142 1.42001 19.1353 2.01366 18.9064 2.51584C18.677 3.01792 18.0834 3.23999 17.5812 3.01096C17.3968 2.92682 17.2089 2.84664 17.0177 2.7717C11.3614 0.555146 4.97939 3.34389 2.76283 9.00022C2.28378 10.2227 2.03902 11.479 2.00599 12.7199C1.97983 13.799 2.11287 14.9005 2.42299 15.9934C4.08157 21.8375 10.1637 25.2308 16.0079 23.5725C21.4542 22.027 24.7727 16.6388 23.8566 11.1828C23.7651 10.6382 24.1333 10.123 24.6779 10.0315C25.2223 9.94031 25.7378 10.3073 25.8292 10.8518C26.3055 13.6881 25.8129 16.5075 24.5656 18.9328C24.5493 18.9795 24.5316 19.0264 24.5079 19.0715C21.4668 24.8621 14.4917 27.559 8.26088 25.1174C2.92441 23.0262 -0.25266 17.7973 0.0157603 12.3723C0.27318 6.94612 3.94175 2.04848 9.45619 0.483618C9.68896 0.417566 9.92304 0.358507 10.1564 0.305883C10.2284 0.289696 10.3003 0.281827 10.3712 0.281469Z" fill="#D0D5DD"/>
<circle cx="21.5066" cy="6.50009" r="2.5" fill="#17B26A"/>
</svg>
