<svg width="80" height="80" viewBox="0 0 80 80" fill="none" xmlns="http://www.w3.org/2000/svg">
<rect width="80" height="80" fill="#C3002F"/>
<path d="M43.8247 57.451C43.713 57.4635 23.2183 59.745 23.2183 44.6473V27.9314C23.2183 23.6947 26.0511 22.2303 28.7798 22.2303C31.5049 22.2304 34.3403 23.6949 34.3403 27.9314V47.6072C34.3406 58.2584 43.7485 57.4576 43.8247 57.451ZM56.9019 45.2127C56.9019 48.0962 55.9566 50.3691 54.0933 51.9666C53.0132 52.8924 51.6185 53.5922 49.9487 54.0457C48.6256 54.405 47.1259 54.6121 45.4917 54.6609C42.717 54.744 40.5419 54.3478 40.4507 54.3309C40.2987 54.303 40.1899 54.1669 40.1899 54.0115C40.1899 54.0019 40.191 53.9921 40.1919 53.9822C40.2064 53.8146 40.3433 53.6863 40.5073 53.6863C43.0546 53.6862 45.1264 51.5606 45.1265 48.948L45.1499 45.2117V27.951C45.1499 26.8948 45.3216 25.9496 45.6606 25.1424C45.9743 24.3958 46.4321 23.7619 47.021 23.2586C47.5543 22.8028 48.192 22.4563 48.9155 22.2293C49.5703 22.0239 50.2815 21.9197 51.0288 21.9197C51.7753 21.9197 52.4859 22.0236 53.1401 22.2293C53.8627 22.4563 54.4999 22.8027 55.0327 23.2586C55.6211 23.7619 56.0778 24.3959 56.3911 25.1424C56.73 25.9496 56.9018 26.8948 56.9019 27.951V45.2127Z" fill="white"/>
</svg>
